<?xml version="1.0" encoding="UTF-8"?>
<svg id="Layer_1" xmlns="http://www.w3.org/2000/svg" version="1.1" viewBox="0 0 384 384">
  <!-- Generator: Adobe Illustrator 29.8.4, SVG Export Plug-In . SVG Version: 2.1.1 Build 6)  -->
  <defs>
    <style>
      .st0 {
        fill: #ededed;
      }
    </style>
  </defs>
  <path class="st0" d="M365.7338231,40.4887851c-3.9109464,3.8914122-9.2402796.6628558-13.6142941.2741849-19.5763405-1.7395359-18.673517,15.5195818-20.4351464,29.7426541-2.286189,3.7461251-7.3130603,4.8525944-10.9657137,2.3375487-3.9978648-2.7527422-2.9208961-12.4348794-3.8048618-17.1588461-2.0701203-11.0628494-7.9860545-16.004838-19.4617637-14.8509191-2.0068589.201796-3.9607916,1.2492601-6.0861639,1.4105137-9.7222111.7376317-12.3634699-10.302497-3.5859692-14.0600596,12.0775397-5.1702772,29.0788324-1.6132522,37.3440366,8.8128496,8.4135-10.391732,24.4366493-13.8025195,36.783362-9.0018056,5.4374306,2.1142104,8.2703916,8.0721979,3.8265141,12.4938794Z"/>
  <path class="st0" d="M18.2604469,76.4222768c-3.1800853-3.2504233-2.6742072-9.640169,1.5531315-11.7417715,8.8544155-4.4019331,23.869655-.1401267,30.0603873,7.499123,4.6970308-8.7388919,32.502335-14.2598005,33.4197255-1.848938.7877577,10.6571335-10.9227364,6.8348782-16.7479127,8.0210559-13.8615916,2.8226289-4.397364,25.9202409-16.0122611,26.7445279-10.891355.7729386-6.8195833-14.5264063-10.6309639-21.4552965-5.3800277-9.7806084-16.9662067-2.439378-21.6421067-7.2187007Z"/>
  <path class="st0" d="M110.804008,278.9681465c4.1733809-.7010021,18.6738625-.6997276,22.7366608.1529183,8.9937555,1.8874896,8.6347561,13.3158736.2851521,14.5901001-3.9039805.5957834-20.8239037.6193104-24.5288406-.1246657-7.9473933-1.5958897-7.8033502-13.0544901,1.5070277-14.6183527Z"/>
  <path class="st0" d="M251.054008,278.9681465c4.1733809-.7010021,18.6738625-.6997276,22.7366608.1529183,8.9937555,1.8874896,8.6347561,13.3158736.2851521,14.5901001-3.9039805.5957834-20.8239037.6193104-24.5288406-.1246657-7.9473933-1.5958897-7.8033502-13.0544901,1.5070277-14.6183527Z"/>
  <path class="st0" d="M367.633139,345.6492351L202.0681976,79.7006267l-.3426514-1.8659058,33.6506958-39.0758057c6.1140747-6.5699463-1.6585083-16.4697876-9.2575684-11.4818726-11.0159302,10.8493652-20.1824951,24.0299072-30.7357178,35.1931152-.737915.7805786-2.6391602,3.1075439-3.6560059,2.9308472-11.9254761-12.3653564-22.1867065-26.2717285-34.2878418-38.4303589-1.473938-.8285522-2.8955078-1.2614746-4.6169434-1.0509644-4.8710327.5956421-8.3217163,6.7974243-5.3646851,11.0134888l34.8148804,40.9015503-.3426514,1.8659058L16.6468109,345.1817668c-4.1815796,6.4297485-.6669922,12.9262695,6.9464111,12.9823608h336.8114014c7.336853-.055481,11.0022583-6.1348877,7.2285156-12.5148926ZM191.6319794,91.6492351l36.3669434,57.6421509h-72l35.6330566-57.6421509ZM146.176413,164.7459758l1.1738281-.5412598,89.8691406.0446167,26.029541,41.9309082h-25.5c.1090088-5.802063,1.0807495-15.2089844-6.5719604-16.3202515-3.0200195-.4385376-8.4280396,2.428894-8.4280396,5.4664307v10.8538208h-23.25c.3224487-5.7056885.9586182-16.0672607-7.1894531-16.4194946-8.5270996-.3686523-8.2896118,10.5608521-7.8105469,16.4194946h-23.25v-10.8538208c0-2.7793579-4.9056396-5.7991943-7.7780151-5.5892944-8.2772217.6047363-7.4874268,10.4415894-7.2219849,16.4431152h-25.5l25.4274902-41.4342651ZM152.9989227,343.1627239l38.6330566-74.8585205,39.3669434,74.8585205h-78ZM316.4989227,343.1627239c.2012329-5.8045044.7175293-15.7402344-7.2261353-16.2261963-2.5541382-.15625-7.7738647,3.0409546-7.7738647,5.3723755v10.8538208h-18c.2012329-5.8045044.7175293-15.7402344-7.2261353-16.2261963-2.5541382-.15625-7.7738647,3.0409546-7.7738647,5.3723755v10.8538208h-20.625l-48.9781494-94.0880737c-3.1001587-5.8916626-10.685791-5.9009399-13.7936401,0l-48.9782104,94.0880737h-20.625v-10.8538208c0-2.3314209-5.2196655-5.5286255-7.7738647-5.3723755-7.9436035.4859619-7.4273071,10.4216919-7.2261353,16.2261963h-18v-10.8538208c0-2.3314209-5.2196655-5.5286255-7.7738647-5.3723755-7.9436035.4859619-7.4273071,10.4216919-7.2261353,16.2261963h-31.5c.4681396-2.3388062,2.2044678-4.6149902,3.4378662-6.6741333,23.3538818-38.9890137,48.5811768-76.9477539,72.3070679-115.7169189l159.9857178-.2250977,1.6183472,1.3789673,73.7462158,118.7716064.9047852,2.4655762h-31.5Z"/>
</svg>