<?xml version="1.0" encoding="UTF-8"?>
<svg id="Layer_1" xmlns="http://www.w3.org/2000/svg" version="1.1" viewBox="0 0 384 384">
  <!-- Generator: Adobe Illustrator 29.8.4, SVG Export Plug-In . SVG Version: 2.1.1 Build 6)  -->
  <defs>
    <style>
      .st0 {
        fill: #fff;
      }
    </style>
  </defs>
  <circle cx="192" cy="192" r="185"/>
  <g>
    <path class="st0" d="M144.129566,232.2643534c2.4604836-.4132795,11.0094848-.4125418,13.4047694.0901586,5.3024185,1.1127959,5.090759,7.8506003.1681186,8.6018261-2.3016535.3512605-12.277076.3651325-14.4613803-.0734979-4.6855175-.940881-4.6005946-7.6964976.8884923-8.6184869Z"/>
    <path class="st0" d="M226.8162543,232.2643534c2.4604881-.4132795,11.0094893-.4125418,13.4047649.0901586,5.3024095,1.1127959,5.090768,7.8506003.1681186,8.6018261-2.3016625.3512605-12.2770715.3651325-14.4613803-.0734979-4.685513-.940881-4.6005901-7.6964976.8884968-8.6184869Z"/>
    <path class="st0" d="M295.5474069,271.5772869l-97.6115416-156.794369-.2020157-1.1000754,19.8393208-23.0377835c3.6046532-3.8734198-.9778008-9.710034-5.4579516-6.7693267-6.4946227,6.3964216-11.8989217,14.1672268-18.1207476,20.7486796-.4350499.460203-1.5559603,1.8321036-2.1554583,1.7279291-7.0308604-7.2901991-13.0805375-15.4889294-20.2149607-22.6572498-.8689844-.4884866-1.7070942-.7437231-2.7219948-.6196133-2.8717974.3511706-4.9062046,4.0075332-3.1628383,6.4931833l20.525685,24.1141813-.2020157,1.1000754-97.4452459,156.5187655c-2.465319,3.7907639-.3932362,7.6208947,4.0953709,7.6539642h198.5727036c4.3255623-.0327097,6.4865622-3.6169239,4.2616902-7.3783606ZM191.7830212,121.8274163l21.4407292,33.983873h-42.4487835s21.0080543-33.9838775,21.0080543-33.983873ZM164.9839449,164.9227968l.6920497-.3191086,52.9838291.0263045,15.3461348,24.7210562h-15.0339442c.0642679-3.4207016.6371736-8.9667067-3.8746073-9.6218725-1.7805022-.258547-4.9688893,1.4319944-4.9688893,3.2228241v6.3990485h-13.7074197c.1901049-3.3638824.5651691-9.4727177-4.2386603-9.6803829-5.0272917-.217345-4.8872769,6.2263239-4.6048363,9.6803829h-13.7074197v-6.3990485c0-1.6386161-2.8922005-3.4190103-4.5856567-3.2952604-4.8799721.3565322-4.4143355,6.1560106-4.2578399,9.6943089h-15.0339442l14.9911948-24.4282521h.000009ZM169.0062676,270.1113233l22.7767536-44.1340712,23.2094285,44.1340712h-45.9861821ZM265.4003891,270.1113233c.1186402-3.422141.4230312-9.2799139-4.2602868-9.5664207-1.5058341-.0921198-4.5832097,1.7928448-4.5832097,3.1673723v6.3990485h-10.6121959c.1186402-3.422141.4230312-9.2799139-4.2602868-9.5664207-1.5058341-.0921198-4.5832097,1.7928448-4.5832097,3.1673723v6.3990485h-12.1598078l-28.8758731-55.4711704c-1.8277495-3.4735265-6.2999837-3.4789961-8.1322673,0l-28.875909,55.4711704h-12.1598078v-6.3990485c0-1.3745275-3.0773396-3.259492-4.5832097-3.1673723-4.683282.2865068-4.378891,6.1442798-4.2602868,9.5664207h-10.6121959v-6.3990485c0-1.3745275-3.0773396-3.259492-4.5832097-3.1673723-4.683282.2865068-4.378891,6.1442798-4.2602868,9.5664207h-18.5713428c.2759994-1.3788816,1.2996802-2.7208434,2.0268505-3.934845,13.7686649-22.9866139,28.6418313-45.3658131,42.6298204-68.2228116l94.3222096-.13271.9541232.8129928,43.4782937,70.0237529.533431,1.453621h-18.5713428Z"/>
  </g>
</svg>